STARTFONT 2.1
FONT -lokaltog-symbols-medium-r-normal--11-110-75-75-p-90-iso10646-1
SIZE 11 75 75
FONTBOUNDINGBOX 11 11 -1 -2
STARTPROPERTIES 23
FONTNAME_REGISTRY ""
FOUNDRY "lokaltog"
FAMILY_NAME "symbols"
WEIGHT_NAME "medium"
SLANT "r"
SETWIDTH_NAME "normal"
ADD_STYLE_NAME ""
PIXEL_SIZE 11
POINT_SIZE 110
RESOLUTION_X 75
RESOLUTION_Y 75
SPACING "p"
AVERAGE_WIDTH 90
CHARSET_ENCODING "1"
COPYRIGHT "Created by Lokaltog"
WEIGHT 10
X_HEIGHT 8
QUAD_WIDTH 6
DEFAULT_CHAR 0
FONT_DESCENT 2
FONT_ASCENT 9
CHARSET_REGISTRY "iso10646"
_GBDFED_INFO "Edited with gbdfed 1.6."
ENDPROPERTIES
CHARS 138
STARTCHAR char256
ENCODING 59904
SWIDTH 698 0
DWIDTH 8 0
BBX 8 8 0 -1
BITMAP
FF
FF
FF
FF
FF
FF
FF
FF
ENDCHAR
STARTCHAR char256
ENCODING 59905
SWIDTH 698 0
DWIDTH 8 0
BBX 8 8 0 -1
BITMAP
F7
F7
F0
F7
F7
F0
F7
F7
ENDCHAR
STARTCHAR char256
ENCODING 59906
SWIDTH 698 0
DWIDTH 8 0
BBX 8 8 0 -1
BITMAP
FF
FF
FF
FF
00
DB
DB
DB
ENDCHAR
STARTCHAR char256
ENCODING 59907
SWIDTH 698 0
DWIDTH 8 0
BBX 8 8 0 -1
BITMAP
F7
F7
F0
07
F7
F0
F7
F7
ENDCHAR
STARTCHAR char256
ENCODING 59908
SWIDTH 698 0
DWIDTH 8 0
BBX 8 8 0 -1
BITMAP
EF
EF
EF
EF
00
DB
DB
DB
ENDCHAR
STARTCHAR char256
ENCODING 59909
SWIDTH 698 0
DWIDTH 8 0
BBX 8 8 0 -1
BITMAP
F8
F8
F8
FB
FB
03
1F
1F
ENDCHAR
STARTCHAR char256
ENCODING 59910
SWIDTH 698 0
DWIDTH 8 0
BBX 8 8 0 -1
BITMAP
DB
DB
00
DB
DB
00
DB
DB
ENDCHAR
STARTCHAR char256
ENCODING 59911
SWIDTH 698 0
DWIDTH 8 0
BBX 8 8 0 -1
BITMAP
FF
FF
FF
FF
00
FF
00
FF
ENDCHAR
STARTCHAR char256
ENCODING 59912
SWIDTH 698 0
DWIDTH 8 0
BBX 8 8 0 -1
BITMAP
F7
F7
F7
F7
F0
F5
F1
F5
ENDCHAR
STARTCHAR char256
ENCODING 59913
SWIDTH 698 0
DWIDTH 8 0
BBX 8 8 0 -1
BITMAP
F7
F7
F7
F7
F0
F5
F4
F5
ENDCHAR
STARTCHAR char256
ENCODING 59920
SWIDTH 872 0
DWIDTH 10 0
BBX 10 10 0 -2
BITMAP
FFC0
8040
8040
8040
8040
8040
8040
8040
8040
FFC0
ENDCHAR
STARTCHAR char256
ENCODING 59921
SWIDTH 872 0
DWIDTH 10 0
BBX 10 10 0 -2
BITMAP
FFC0
8440
8440
87C0
8440
8440
87C0
8440
8440
FFC0
ENDCHAR
STARTCHAR char256
ENCODING 59922
SWIDTH 872 0
DWIDTH 10 0
BBX 10 10 0 -2
BITMAP
FFC0
8040
8040
8040
8040
FFC0
9240
9240
9240
FFC0
ENDCHAR
STARTCHAR char256
ENCODING 59923
SWIDTH 872 0
DWIDTH 10 0
BBX 10 10 0 -2
BITMAP
FFC0
8440
8440
87C0
FC40
8440
87C0
8440
8440
FFC0
ENDCHAR
STARTCHAR char256
ENCODING 59924
SWIDTH 872 0
DWIDTH 10 0
BBX 10 10 0 -2
BITMAP
FFC0
8840
8840
8840
8840
FFC0
9240
9240
9240
FFC0
ENDCHAR
STARTCHAR char256
ENCODING 59925
SWIDTH 872 0
DWIDTH 10 0
BBX 10 10 0 -2
BITMAP
FE00
8200
8200
83C0
8240
8240
FE40
1040
1040
1FC0
ENDCHAR
STARTCHAR char256
ENCODING 59926
SWIDTH 872 0
DWIDTH 10 0
BBX 10 10 0 -2
BITMAP
FFC0
9240
9240
FFC0
9240
9240
FFC0
9240
9240
FFC0
ENDCHAR
STARTCHAR char256
ENCODING 59927
SWIDTH 872 0
DWIDTH 10 0
BBX 10 10 0 -2
BITMAP
FFC0
8040
8040
8040
8040
FFC0
8040
FFC0
8040
FFC0
ENDCHAR
STARTCHAR char256
ENCODING 59928
SWIDTH 872 0
DWIDTH 10 0
BBX 10 10 0 -2
BITMAP
FFC0
8440
8440
8440
8440
87C0
8540
8740
8540
FFC0
ENDCHAR
STARTCHAR char256
ENCODING 59929
SWIDTH 872 0
DWIDTH 10 0
BBX 10 10 0 -2
BITMAP
FFC0
8440
8440
8440
8440
87C0
8540
85C0
8540
FFC0
ENDCHAR
STARTCHAR char317
ENCODING 59936
SWIDTH 610 0
DWIDTH 7 0
BBX 7 7 0 0
BITMAP
10
54
92
92
82
44
38
ENDCHAR
STARTCHAR char278
ENCODING 59937
SWIDTH 698 0
DWIDTH 8 0
BBX 8 6 0 0
BITMAP
1C
3F
FC
FC
3F
1C
ENDCHAR
STARTCHAR char278
ENCODING 59938
SWIDTH 872 0
DWIDTH 10 0
BBX 10 8 0 -1
BITMAP
00C0
18C0
3EC0
F8C0
F8C0
3E00
18C0
00C0
ENDCHAR
STARTCHAR char272
ENCODING 59939
SWIDTH 610 0
DWIDTH 7 0
BBX 6 9 0 -1
BITMAP
30
FC
84
84
84
84
84
84
FC
ENDCHAR
STARTCHAR char272
ENCODING 59940
SWIDTH 785 0
DWIDTH 9 0
BBX 9 9 0 -1
BITMAP
3000
FD80
8580
8580
8580
8580
8400
8580
FD80
ENDCHAR
STARTCHAR char272
ENCODING 59941
SWIDTH 785 0
DWIDTH 9 0
BBX 9 9 0 -1
BITMAP
3000
FD80
8580
8580
8580
A580
B400
8580
FD80
ENDCHAR
STARTCHAR char272
ENCODING 59942
SWIDTH 610 0
DWIDTH 7 0
BBX 6 9 0 -1
BITMAP
30
FC
84
84
A4
B4
B4
84
FC
ENDCHAR
STARTCHAR char272
ENCODING 59943
SWIDTH 610 0
DWIDTH 7 0
BBX 6 9 0 -1
BITMAP
30
FC
84
B4
B4
B4
B4
84
FC
ENDCHAR
STARTCHAR char272
ENCODING 59944
SWIDTH 610 0
DWIDTH 7 0
BBX 9 6 0 0
BITMAP
FF00
8100
8180
8180
8100
FF00
ENDCHAR
STARTCHAR char272
ENCODING 59945
SWIDTH 610 0
DWIDTH 7 0
BBX 9 6 0 0
BITMAP
FF00
8100
B180
B980
8100
FF00
ENDCHAR
STARTCHAR char272
ENCODING 59946
SWIDTH 610 0
DWIDTH 7 0
BBX 9 6 0 0
BITMAP
FF00
8100
BD80
BD80
8100
FF00
ENDCHAR
STARTCHAR char39
ENCODING 59947
SWIDTH 610 0
DWIDTH 7 0
BBX 6 10 1 -2
BITMAP
08
10
30
60
7C
F8
18
30
20
40
ENDCHAR
STARTCHAR char230
ENCODING 59948
SWIDTH 523 0
DWIDTH 6 0
BBX 5 9 0 -1
BITMAP
08
10
20
60
F8
30
20
40
80
ENDCHAR
STARTCHAR char278
ENCODING 59952
SWIDTH 436 0
DWIDTH 5 0
BBX 5 8 0 -1
BITMAP
10
30
E8
D0
A0
50
B0
10
ENDCHAR
STARTCHAR char278
ENCODING 59953
SWIDTH 349 0
DWIDTH 4 0
BBX 4 8 0 -1
BITMAP
10
30
F0
F0
F0
F0
30
10
ENDCHAR
STARTCHAR char278
ENCODING 59954
SWIDTH 523 0
DWIDTH 6 0
BBX 6 8 0 -1
BITMAP
10
30
F0
F4
F4
F0
30
10
ENDCHAR
STARTCHAR char278
ENCODING 59955
SWIDTH 698 0
DWIDTH 8 0
BBX 8 8 0 -1
BITMAP
10
32
F1
F5
F5
F1
32
10
ENDCHAR
STARTCHAR char144
ENCODING 59956
SWIDTH 698 0
DWIDTH 8 0
BBX 8 9 0 -1
BITMAP
3C
42
81
81
A5
E7
E7
66
24
ENDCHAR
STARTCHAR char302
ENCODING 59957
SWIDTH 698 0
DWIDTH 8 0
BBX 8 8 0 -1
BITMAP
C0
F0
78
7C
3C
1A
05
03
ENDCHAR
STARTCHAR char144
ENCODING 59958
SWIDTH 698 0
DWIDTH 8 0
BBX 8 8 0 -1
BITMAP
3F
3F
21
21
21
63
E7
C6
ENDCHAR
STARTCHAR char144
ENCODING 59959
SWIDTH 698 0
DWIDTH 8 0
BBX 8 10 0 -2
BITMAP
03
0F
3D
31
21
23
27
66
E0
C0
ENDCHAR
STARTCHAR char294
ENCODING 59960
SWIDTH 436 0
DWIDTH 5 0
BBX 5 7 0 0
BITMAP
88
98
B8
F8
B8
98
88
ENDCHAR
STARTCHAR char294
ENCODING 59961
SWIDTH 610 0
DWIDTH 7 0
BBX 7 7 0 0
BITMAP
12
36
7E
FE
7E
36
12
ENDCHAR
STARTCHAR char293
ENCODING 59962
SWIDTH 436 0
DWIDTH 5 0
BBX 5 5 0 1
BITMAP
70
F8
F8
F8
70
ENDCHAR
STARTCHAR char293
ENCODING 59963
SWIDTH 436 0
DWIDTH 5 0
BBX 5 5 0 1
BITMAP
F8
F8
F8
F8
F8
ENDCHAR
STARTCHAR char294
ENCODING 59964
SWIDTH 349 0
DWIDTH 4 0
BBX 4 7 0 0
BITMAP
80
C0
E0
F0
E0
C0
80
ENDCHAR
STARTCHAR char295
ENCODING 59965
SWIDTH 436 0
DWIDTH 5 0
BBX 5 5 0 1
BITMAP
D8
D8
D8
D8
D8
ENDCHAR
STARTCHAR char294
ENCODING 59966
SWIDTH 610 0
DWIDTH 7 0
BBX 7 7 0 0
BITMAP
90
D8
FC
FE
FC
D8
90
ENDCHAR
STARTCHAR char294
ENCODING 59967
SWIDTH 436 0
DWIDTH 5 0
BBX 5 7 0 0
BITMAP
88
C8
E8
F8
E8
C8
88
ENDCHAR
STARTCHAR char336
ENCODING 59968
SWIDTH 523 0
DWIDTH 6 0
BBX 4 4 2 -1
BITMAP
F0
00
60
60
ENDCHAR
STARTCHAR char336
ENCODING 59969
SWIDTH 610 0
DWIDTH 7 0
BBX 6 6 1 -1
BITMAP
FC
00
78
00
30
30
ENDCHAR
STARTCHAR char336
ENCODING 59970
SWIDTH 698 0
DWIDTH 8 0
BBX 8 8 0 -1
BITMAP
FF
00
7E
00
3C
00
18
18
ENDCHAR
STARTCHAR char285
ENCODING 59971
SWIDTH 349 0
DWIDTH 4 0
BBX 4 4 0 1
BITMAP
10
D0
D0
10
ENDCHAR
STARTCHAR char285
ENCODING 59972
SWIDTH 523 0
DWIDTH 6 0
BBX 6 6 0 0
BITMAP
04
14
D4
D4
14
04
ENDCHAR
STARTCHAR char285
ENCODING 59973
SWIDTH 698 0
DWIDTH 8 0
BBX 8 8 0 -1
BITMAP
01
05
15
D5
D5
15
05
01
ENDCHAR
STARTCHAR char282
ENCODING 59974
SWIDTH 785 0
DWIDTH 9 0
BBX 7 3 0 0
BITMAP
0A
C4
CA
ENDCHAR
STARTCHAR char282
ENCODING 59975
SWIDTH 698 0
DWIDTH 8 0
BBX 6 4 2 0
BITMAP
78
84
30
30
ENDCHAR
STARTCHAR char282
ENCODING 59976
SWIDTH 785 0
DWIDTH 9 0
BBX 8 6 1 0
BITMAP
7E
81
3C
42
18
18
ENDCHAR
STARTCHAR char282
ENCODING 59977
SWIDTH 872 0
DWIDTH 10 0
BBX 10 8 0 0
BITMAP
7F80
8040
3F00
4080
1E00
2100
0C00
0C00
ENDCHAR
STARTCHAR char96
ENCODING 59984
SWIDTH 523 0
DWIDTH 6 0
BBX 6 8 0 -1
BITMAP
80
80
00
80
80
14
88
94
ENDCHAR
STARTCHAR char96
ENCODING 59985
SWIDTH 174 0
DWIDTH 2 0
BBX 2 8 0 -1
BITMAP
80
80
00
80
80
00
C0
C0
ENDCHAR
STARTCHAR char96
ENCODING 59986
SWIDTH 349 0
DWIDTH 4 0
BBX 4 8 0 -1
BITMAP
80
80
00
F0
F0
00
C0
C0
ENDCHAR
STARTCHAR char96
ENCODING 59987
SWIDTH 523 0
DWIDTH 6 0
BBX 6 8 0 -1
BITMAP
FC
FC
00
F0
F0
00
C0
C0
ENDCHAR
STARTCHAR char96
ENCODING 59988
SWIDTH 523 0
DWIDTH 6 0
BBX 6 8 0 -1
BITMAP
04
04
00
04
04
A0
44
A4
ENDCHAR
STARTCHAR char96
ENCODING 59989
SWIDTH 174 0
DWIDTH 2 0
BBX 2 8 4 -1
BITMAP
40
40
00
40
40
00
C0
C0
ENDCHAR
STARTCHAR char96
ENCODING 59990
SWIDTH 349 0
DWIDTH 4 0
BBX 4 8 2 -1
BITMAP
10
10
00
F0
F0
00
30
30
ENDCHAR
STARTCHAR char96
ENCODING 59991
SWIDTH 523 0
DWIDTH 6 0
BBX 6 8 0 -1
BITMAP
FC
FC
00
3C
3C
00
0C
0C
ENDCHAR
STARTCHAR char85
ENCODING 60000
SWIDTH 698 0
DWIDTH 8 0
BBX 8 8 0 -1
BITMAP
18
18
24
24
66
7E
E7
FF
ENDCHAR
STARTCHAR char85
ENCODING 60001
SWIDTH 698 0
DWIDTH 8 0
BBX 8 8 0 -1
BITMAP
7E
E7
E7
E7
E7
FF
E7
7E
ENDCHAR
STARTCHAR char87
ENCODING 60002
SWIDTH 436 0
DWIDTH 5 0
BBX 5 9 0 -1
BITMAP
70
F8
F8
70
70
20
00
70
20
ENDCHAR
STARTCHAR char340
ENCODING 60003
SWIDTH 698 0
DWIDTH 8 0
BBX 8 8 0 -1
BITMAP
3C
66
FF
E7
E7
E7
66
3C
ENDCHAR
STARTCHAR char85
ENCODING 60004
SWIDTH 698 0
DWIDTH 8 0
BBX 8 8 0 -1
BITMAP
7E
E7
FF
E7
E7
E7
E7
7E
ENDCHAR
STARTCHAR char318
ENCODING 60005
SWIDTH 523 0
DWIDTH 6 0
BBX 6 8 -1 -1
BITMAP
38
38
00
78
38
38
38
7C
ENDCHAR
STARTCHAR char340
ENCODING 60006
SWIDTH 698 0
DWIDTH 8 0
BBX 8 8 0 -1
BITMAP
3C
7E
DB
E7
E7
DB
7E
3C
ENDCHAR
STARTCHAR char85
ENCODING 60007
SWIDTH 698 0
DWIDTH 8 0
BBX 8 8 0 -1
BITMAP
7E
FF
DB
E7
E7
DB
FF
7E
ENDCHAR
STARTCHAR char93
ENCODING 60008
SWIDTH 698 0
DWIDTH 8 0
BBX 7 7 0 0
BITMAP
C6
EE
7C
38
7C
EE
C6
ENDCHAR
STARTCHAR char308
ENCODING 60016
SWIDTH 610 0
DWIDTH 7 0
BBX 7 8 0 -1
BITMAP
10
38
7C
FE
38
38
38
1C
ENDCHAR
STARTCHAR char308
ENCODING 60017
SWIDTH 610 0
DWIDTH 7 0
BBX 7 8 0 -1
BITMAP
10
38
7C
FE
38
38
38
38
ENDCHAR
STARTCHAR char308
ENCODING 60018
SWIDTH 610 0
DWIDTH 7 0
BBX 7 8 0 -1
BITMAP
10
38
7C
FE
38
38
38
70
ENDCHAR
STARTCHAR char308
ENCODING 60019
SWIDTH 610 0
DWIDTH 7 0
BBX 8 7 0 0
BITMAP
08
0C
7E
FF
FE
8C
08
ENDCHAR
STARTCHAR char308
ENCODING 60020
SWIDTH 610 0
DWIDTH 7 0
BBX 8 7 0 0
BITMAP
08
0C
FE
FF
FE
0C
08
ENDCHAR
STARTCHAR char308
ENCODING 60021
SWIDTH 610 0
DWIDTH 7 0
BBX 8 7 0 0
BITMAP
08
8C
FE
FF
7E
0C
08
ENDCHAR
STARTCHAR char308
ENCODING 60022
SWIDTH 610 0
DWIDTH 7 0
BBX 7 8 0 -1
BITMAP
1C
38
38
38
FE
7C
38
10
ENDCHAR
STARTCHAR char308
ENCODING 60023
SWIDTH 610 0
DWIDTH 7 0
BBX 7 8 0 -1
BITMAP
38
38
38
38
FE
7C
38
10
ENDCHAR
STARTCHAR char308
ENCODING 60024
SWIDTH 610 0
DWIDTH 7 0
BBX 7 8 0 -1
BITMAP
70
38
38
38
FE
7C
38
10
ENDCHAR
STARTCHAR char308
ENCODING 60025
SWIDTH 610 0
DWIDTH 7 0
BBX 8 7 0 0
BITMAP
10
30
7E
FF
7F
31
10
ENDCHAR
STARTCHAR char308
ENCODING 60026
SWIDTH 610 0
DWIDTH 7 0
BBX 8 7 0 0
BITMAP
10
30
7F
FF
7F
30
10
ENDCHAR
STARTCHAR char308
ENCODING 60027
SWIDTH 610 0
DWIDTH 7 0
BBX 8 7 0 0
BITMAP
10
31
7F
FF
7E
30
10
ENDCHAR
STARTCHAR char294
ENCODING 60028
SWIDTH 261 0
DWIDTH 3 0
BBX 5 3 0 2
BITMAP
20
70
F8
ENDCHAR
STARTCHAR char294
ENCODING 60029
SWIDTH 261 0
DWIDTH 3 0
BBX 3 5 0 1
BITMAP
80
C0
E0
C0
80
ENDCHAR
STARTCHAR char294
ENCODING 60030
SWIDTH 261 0
DWIDTH 3 0
BBX 5 3 0 2
BITMAP
F8
70
20
ENDCHAR
STARTCHAR char294
ENCODING 60031
SWIDTH 261 0
DWIDTH 3 0
BBX 3 5 0 1
BITMAP
20
60
E0
60
20
ENDCHAR
STARTCHAR char246
ENCODING 60080
SWIDTH 261 0
DWIDTH 3 0
BBX 3 6 0 0
BITMAP
60
80
80
80
80
60
ENDCHAR
STARTCHAR char246
ENCODING 60081
SWIDTH 261 0
DWIDTH 3 0
BBX 3 6 0 0
BITMAP
60
80
A0
A0
80
60
ENDCHAR
STARTCHAR char246
ENCODING 60082
SWIDTH 174 0
DWIDTH 2 0
BBX 2 6 0 0
BITMAP
C0
00
00
00
00
C0
ENDCHAR
STARTCHAR char246
ENCODING 60083
SWIDTH 174 0
DWIDTH 2 0
BBX 2 6 0 0
BITMAP
C0
00
C0
C0
00
C0
ENDCHAR
STARTCHAR char246
ENCODING 60084
SWIDTH 174 0
DWIDTH 2 0
BBX 2 6 0 0
BITMAP
C0
00
80
80
00
C0
ENDCHAR
STARTCHAR char246
ENCODING 60085
SWIDTH 261 0
DWIDTH 3 0
BBX 3 6 0 0
BITMAP
C0
20
20
20
20
C0
ENDCHAR
STARTCHAR char246
ENCODING 60086
SWIDTH 261 0
DWIDTH 3 0
BBX 3 6 0 0
BITMAP
C0
20
A0
A0
20
C0
ENDCHAR
STARTCHAR char246
ENCODING 60096
SWIDTH 261 0
DWIDTH 3 0
BBX 3 8 0 -1
BITMAP
60
80
80
80
80
80
80
60
ENDCHAR
STARTCHAR char246
ENCODING 60097
SWIDTH 261 0
DWIDTH 3 0
BBX 3 8 0 -1
BITMAP
60
80
A0
A0
A0
A0
80
60
ENDCHAR
STARTCHAR char246
ENCODING 60098
SWIDTH 174 0
DWIDTH 2 0
BBX 2 8 0 -1
BITMAP
C0
00
00
00
00
00
00
C0
ENDCHAR
STARTCHAR char246
ENCODING 60099
SWIDTH 174 0
DWIDTH 2 0
BBX 2 8 0 -1
BITMAP
C0
00
C0
C0
C0
C0
00
C0
ENDCHAR
STARTCHAR char246
ENCODING 60100
SWIDTH 174 0
DWIDTH 2 0
BBX 2 8 0 -1
BITMAP
C0
00
80
80
80
80
00
C0
ENDCHAR
STARTCHAR char246
ENCODING 60101
SWIDTH 261 0
DWIDTH 3 0
BBX 3 8 0 -1
BITMAP
C0
20
20
20
20
20
20
C0
ENDCHAR
STARTCHAR char246
ENCODING 60102
SWIDTH 261 0
DWIDTH 3 0
BBX 3 8 0 -1
BITMAP
C0
20
A0
A0
A0
A0
20
C0
ENDCHAR
STARTCHAR char246
ENCODING 60112
SWIDTH 349 0
DWIDTH 4 0
BBX 4 8 0 -1
BITMAP
30
40
80
80
80
80
40
30
ENDCHAR
STARTCHAR char246
ENCODING 60113
SWIDTH 349 0
DWIDTH 4 0
BBX 4 8 0 -1
BITMAP
30
40
90
B0
B0
90
40
30
ENDCHAR
STARTCHAR char246
ENCODING 60114
SWIDTH 174 0
DWIDTH 2 0
BBX 2 8 0 -1
BITMAP
C0
00
00
00
00
00
00
C0
ENDCHAR
STARTCHAR char246
ENCODING 60115
SWIDTH 174 0
DWIDTH 2 0
BBX 2 8 0 -1
BITMAP
C0
00
C0
C0
C0
C0
00
C0
ENDCHAR
STARTCHAR char246
ENCODING 60116
SWIDTH 174 0
DWIDTH 2 0
BBX 2 8 0 -1
BITMAP
C0
00
80
C0
C0
80
00
C0
ENDCHAR
STARTCHAR char246
ENCODING 60117
SWIDTH 349 0
DWIDTH 4 0
BBX 4 8 0 -1
BITMAP
C0
20
10
10
10
10
20
C0
ENDCHAR
STARTCHAR char246
ENCODING 60118
SWIDTH 349 0
DWIDTH 4 0
BBX 4 8 0 -1
BITMAP
C0
20
90
D0
D0
90
20
C0
ENDCHAR
STARTCHAR char43
ENCODING 60128
SWIDTH 785 0
DWIDTH 9 0
BBX 9 9 0 -1
BITMAP
7F00
8080
9080
9080
AA80
8480
8480
8080
7F00
ENDCHAR
STARTCHAR char43
ENCODING 60129
SWIDTH 785 0
DWIDTH 9 0
BBX 9 9 0 -1
BITMAP
7F00
EF80
EF80
EF80
9480
FB80
FB80
FB80
7F00
ENDCHAR
STARTCHAR char74
ENCODING 60130
SWIDTH 698 0
DWIDTH 8 0
BBX 8 8 0 0
BITMAP
02
FA
3E
66
66
7C
5F
40
ENDCHAR
STARTCHAR char319
ENCODING 60131
SWIDTH 698 0
DWIDTH 8 0
BBX 8 8 0 -1
BITMAP
13
07
4E
14
68
90
90
60
ENDCHAR
STARTCHAR char319
ENCODING 60132
SWIDTH 610 0
DWIDTH 7 0
BBX 7 8 0 -1
BITMAP
AA
00
FE
FE
FE
FE
00
AA
ENDCHAR
STARTCHAR char229
ENCODING 60133
SWIDTH 349 0
DWIDTH 4 0
BBX 5 10 -1 -2
BITMAP
F8
88
88
F8
20
70
00
20
00
A8
ENDCHAR
STARTCHAR char256
ENCODING 60134
SWIDTH 785 0
DWIDTH 9 0
BBX 8 8 1 -1
BITMAP
60
EC
DE
5E
EC
DE
3F
3F
ENDCHAR
STARTCHAR char256
ENCODING 60135
SWIDTH 698 0
DWIDTH 8 0
BBX 8 8 1 -1
BITMAP
3C
7E
A7
C0
C3
E7
6E
1C
ENDCHAR
STARTCHAR char256
ENCODING 60136
SWIDTH 698 0
DWIDTH 8 0
BBX 8 8 1 -1
BITMAP
7E
FF
81
A1
91
A1
81
7E
ENDCHAR
STARTCHAR char256
ENCODING 60137
SWIDTH 698 0
DWIDTH 8 0
BBX 8 8 1 -1
BITMAP
7E
FF
81
BD
81
BD
81
7E
ENDCHAR
STARTCHAR char60138
ENCODING 60138
SWIDTH 785 0
DWIDTH 9 0
BBX 8 8 1 -1
BITMAP
7E
81
B5
81
81
7A
0C
18
ENDCHAR
STARTCHAR char316
ENCODING 60144
SWIDTH 785 0
DWIDTH 9 0
BBX 9 10 0 -1
BITMAP
0800
0800
1C00
1C00
3E00
3E00
7700
6300
E380
8080
ENDCHAR
STARTCHAR char304
ENCODING 60145
SWIDTH 698 0
DWIDTH 8 0
BBX 8 8 0 -1
BITMAP
3C
76
E7
FF
E0
F8
7E
3C
ENDCHAR
STARTCHAR char340
ENCODING 60146
SWIDTH 698 0
DWIDTH 8 0
BBX 8 8 0 -1
BITMAP
3C
66
F7
F5
A5
A7
4E
3C
ENDCHAR
STARTCHAR char314
ENCODING 60147
SWIDTH 698 0
DWIDTH 8 0
BBX 7 9 0 -1
BITMAP
18
14
92
54
38
54
92
14
18
ENDCHAR
STARTCHAR char315
ENCODING 60148
SWIDTH 523 0
DWIDTH 6 0
BBX 5 9 1 -1
BITMAP
20
28
28
A8
B0
A0
60
20
20
ENDCHAR
STARTCHAR char305
ENCODING 60149
SWIDTH 785 0
DWIDTH 9 0
BBX 9 7 0 0
BITMAP
FF80
BE80
DD80
EB80
D580
BE80
FF80
ENDCHAR
STARTCHAR char305
ENCODING 60150
SWIDTH 785 0
DWIDTH 9 0
BBX 9 7 0 0
BITMAP
FF80
C180
A280
9480
AA80
C180
FF80
ENDCHAR
STARTCHAR char76
ENCODING 60151
SWIDTH 698 0
DWIDTH 8 0
BBX 7 9 0 -1
BITMAP
44
FE
FE
82
AA
82
AA
82
FE
ENDCHAR
STARTCHAR char76
ENCODING 60152
SWIDTH 698 0
DWIDTH 8 0
BBX 7 9 0 -1
BITMAP
44
FE
FE
82
82
82
82
82
FE
ENDCHAR
STARTCHAR char76
ENCODING 60153
SWIDTH 785 0
DWIDTH 9 0
BBX 9 9 0 -1
BITMAP
4800
FD80
FD80
8580
8580
8580
8400
8580
FD80
ENDCHAR
STARTCHAR char317
ENCODING 60154
SWIDTH 610 0
DWIDTH 7 0
BBX 7 7 0 0
BITMAP
38
6C
EE
E2
FE
7C
38
ENDCHAR
STARTCHAR char340
ENCODING 60155
SWIDTH 698 0
DWIDTH 8 0
BBX 8 8 0 -1
BITMAP
3C
6E
EF
EF
E1
FF
7E
3C
ENDCHAR
STARTCHAR char252
ENCODING 60156
SWIDTH 785 0
DWIDTH 9 0
BBX 8 8 0 -1
BITMAP
FF
87
FB
8D
F5
95
95
FF
ENDCHAR
STARTCHAR char252
ENCODING 60157
SWIDTH 610 0
DWIDTH 7 0
BBX 6 6 0 0
BITMAP
F0
08
E4
14
D4
D4
ENDCHAR
ENDFONT
